<?xml version="1.0" encoding="utf-8"?>
<!-- Generator: Adobe Illustrator 17.1.0, SVG Export Plug-In . SVG Version: 6.00 Build 0)  -->
<!DOCTYPE svg PUBLIC "-//W3C//DTD SVG 1.1//EN" "http://www.w3.org/Graphics/SVG/1.1/DTD/svg11.dtd">
<svg version="1.1" id="lab-flask-leaf" xmlns="http://www.w3.org/2000/svg" xmlns:xlink="http://www.w3.org/1999/xlink" x="0px"
	 y="0px" viewBox="0 0 874.6328 1009.9998" enable-background="new 0 0 874.6328 1009.9998" xml:space="preserve">
<g id="lab-flask-leaf-lab-flask-leaf">
	<g id="lab-flask-leaf-flask">
		<g id="lab-flask-leaf-fill_1_">
			<path fill="#F3F5F6" d="M285.102,34.4773c-29.3452,0-53.1118,23.8047-53.1118,53.1114c0,29.3066,23.7666,53.1113,53.1118,53.1113
				v177.0259C125.7866,353.1463,19.5634,505.45,19.5634,654.115c0,185.7364,150.5655,336.3213,336.3409,336.3213
				c185.7758,0,336.3217-150.5849,336.3217-336.3213c0-148.665-106.1845-300.9687-265.5381-336.3891V140.7
				c29.4024,0,53.1495-23.8047,53.1495-53.1113c0-29.3067-23.7471-53.1114-53.1495-53.1114H285.102"/>
			<path fill="#EC644B" d="M19.5634,588.1639C5.6552,833.8719,170.1289,990.4363,355.9043,990.4363
				c185.7758,0,342.0336-160.6904,336.3217-402.2724"/>
			<g>
				<path fill="#F3F5F6" d="M454.81,726.7322c18.2451,0,32.9756,14.7295,32.9756,32.9551c0,18.1885-14.7305,32.9756-32.9756,32.9756
					c-18.2261,0-32.9555-14.7871-32.9555-32.9756C421.8545,741.4617,436.5839,726.7322,454.81,726.7322z"/>
				<path fill="#F3F5F6" d="M322.9677,792.6629c18.2071,0,32.9366,14.7295,32.9366,32.9365
					c0,18.207-14.7295,32.9942-32.9366,32.9942c-18.2641,0-32.9751-14.7872-32.9751-32.9942
					C289.9926,807.3924,304.7036,792.6629,322.9677,792.6629z"/>
				<path fill="#F3F5F6" d="M257.0175,660.8006c18.2261,0,32.9751,14.7304,32.9751,32.9756c0,18.1884-14.749,32.956-32.9751,32.956
					c-18.2451,0-32.9751-14.7676-32.9751-32.956C224.0424,675.531,238.7724,660.8006,257.0175,660.8006z"/>
			</g>
		</g>
		<g>
			<path fill="#34495E" d="M446.2514,302.4227v-144.834c30.625-8.5586,53.1494-36.7002,53.1494-70
				c0-40.0821-32.6113-72.6748-72.7129-72.6748H285.102c-40.082,0-72.6753,32.5927-72.6753,72.6748
				c0,33.2998,22.5059,61.4414,53.1118,70v144.834C113.1005,344.0716,0,492.4397,0,654.115
				c0,196.2442,159.6591,355.8848,355.9043,355.8848c196.2446,0,355.8852-159.6406,355.8852-355.8848
				C711.7895,492.4207,598.6889,344.0716,446.2514,302.4227z M251.5537,87.5887c0-18.4937,15.0547-33.5484,33.5483-33.5484h141.5859
				c18.5127,0,33.586,15.0547,33.586,33.5484c0,18.4936-15.0733,33.5483-33.586,33.5483H285.102
				C266.6084,121.137,251.5537,106.0823,251.5537,87.5887z M355.9043,970.8728c-174.6758,0-316.7774-142.1015-316.7774-316.7578
				c0-149.1616,107.5791-285.5703,250.2163-317.2841c8.96-2.0064,15.3218-9.9346,15.3218-19.105V160.2635h102.4595v157.4624
				c0,9.1704,6.3618,17.0986,15.3222,19.105c142.6368,31.6948,250.2159,168.1035,250.2159,317.2841
				C672.6626,828.7713,530.561,970.8728,355.9043,970.8728z"/>
			<path fill="#34495E" d="M331.1445,411.4925c-120.1314,0-217.8716,97.7212-217.8716,217.8432
				c0,10.8125,8.75,19.5625,19.563,19.5625c10.8135,0,19.5635-8.75,19.5635-19.5625c0-98.5429,80.1831-178.7168,178.7451-178.7168
				c10.8135,0,19.5635-8.75,19.5635-19.5629C350.708,420.2425,341.958,411.4925,331.1445,411.4925z"/>
		</g>
	</g>
</g>
</svg>
